<svg width="2632" height="683" viewBox="0 0 2632 683" fill="none" xmlns="http://www.w3.org/2000/svg">
<path d="M889.125 164.448C885.781 164.6 882.893 165.056 880.461 165.816C878.029 166.576 876.129 168.324 874.761 171.06C873.545 173.644 872.937 178.052 872.937 184.284V271.608C872.937 275.712 872.861 279.664 872.709 283.464C872.557 287.264 872.329 290.152 872.025 292.128C874.457 291.824 877.497 291.672 881.145 291.672C884.945 291.52 887.605 291.444 889.125 291.444V309H823.689V293.952C827.185 293.8 830.073 293.344 832.353 292.584C834.785 291.824 836.609 290.076 837.825 287.34C839.193 284.604 839.877 280.196 839.877 274.116V186.792C839.877 182.688 839.953 178.736 840.105 174.936C840.409 171.136 840.637 168.248 840.789 166.272C838.357 166.424 835.317 166.576 831.669 166.728C828.021 166.728 825.361 166.804 823.689 166.956V149.4H889.125V164.448ZM1033.16 311.28L960.197 218.028C958.221 215.444 956.169 212.708 954.041 209.82C951.913 206.932 949.785 203.968 947.657 200.928H947.429L947.885 271.608C947.885 275.712 947.809 279.664 947.657 283.464C947.505 287.264 947.277 290.152 946.973 292.128C949.405 291.824 952.445 291.672 956.093 291.672C959.893 291.52 962.553 291.444 964.073 291.444V309H912.089V293.952C915.585 293.8 918.473 293.344 920.753 292.584C923.185 291.824 925.009 290.076 926.225 287.34C927.593 284.604 928.277 280.196 928.277 274.116L927.821 186.792C927.821 182.688 927.897 178.736 928.049 174.936C928.201 171.136 928.429 168.248 928.733 166.272C926.301 166.424 923.185 166.576 919.385 166.728C915.737 166.728 913.077 166.804 911.405 166.956V149.4H947.201L1016.97 237.408C1020.77 242.272 1023.88 246.452 1026.32 249.948C1028.9 253.444 1031.1 256.484 1032.93 259.068H1033.16V186.792C1033.16 182.688 1033.23 178.736 1033.38 174.936C1033.54 171.136 1033.69 168.248 1033.84 166.272C1031.41 166.424 1028.37 166.576 1024.72 166.728C1021.07 166.728 1018.41 166.804 1016.74 166.956V149.4H1068.72V164.448C1065.38 164.6 1062.49 165.056 1060.06 165.816C1057.63 166.576 1055.73 168.324 1054.36 171.06C1053.14 173.644 1052.54 178.052 1052.54 184.284V311.28H1033.16ZM1180.32 200.472C1178.95 191.96 1176.52 184.892 1173.02 179.268C1169.52 173.492 1165.04 169.16 1159.57 166.272C1154.25 163.384 1148.02 162.016 1140.87 162.168C1134.34 162.168 1128.56 163.992 1123.54 167.64C1118.68 171.288 1116.25 176 1116.25 181.776C1116.25 186.488 1117.54 190.592 1120.12 194.088C1122.86 197.584 1126.96 200.852 1132.44 203.892C1137.91 206.932 1144.82 210.2 1153.18 213.696C1158.96 215.976 1164.89 218.636 1170.97 221.676C1177.05 224.716 1182.67 228.364 1187.84 232.62C1193.01 236.724 1197.19 241.588 1200.38 247.212C1203.57 252.684 1205.17 259.144 1205.17 266.592C1205.17 275.56 1202.74 283.54 1197.87 290.532C1193.01 297.524 1186.17 302.996 1177.35 306.948C1168.69 310.748 1158.5 312.648 1146.8 312.648C1140.72 312.648 1134.11 311.66 1126.96 309.684C1119.97 307.86 1113.36 305.124 1107.13 301.476L1107.81 311.052H1090.26V257.7H1105.3C1107.43 270.468 1112.3 280.12 1119.9 286.656C1127.65 293.04 1136.84 296.232 1147.48 296.232C1152.96 296.232 1157.74 295.244 1161.85 293.268C1165.95 291.292 1169.14 288.708 1171.42 285.516C1173.7 282.172 1174.84 278.6 1174.84 274.8C1174.84 269.48 1172.94 265.072 1169.14 261.576C1165.5 258.08 1160.86 255.116 1155.24 252.684C1149.76 250.252 1144.14 247.896 1138.36 245.616C1131.07 242.576 1124.23 239.384 1117.84 236.04C1111.61 232.544 1106.14 228.592 1101.43 224.184C1096.72 219.776 1093.07 214.76 1090.48 209.136C1087.9 203.36 1086.61 196.748 1086.61 189.3C1086.61 184.588 1087.52 179.724 1089.34 174.708C1091.17 169.54 1094.13 164.828 1098.24 160.572C1102.34 156.164 1107.81 152.592 1114.65 149.856C1121.49 147.12 1129.93 145.752 1139.96 145.752C1146.04 145.752 1152.65 146.664 1159.8 148.488C1167.09 150.312 1173.32 153.048 1178.49 156.696L1177.58 147.348H1195.36V200.472H1180.32ZM1289.91 164.448C1286.56 164.6 1283.67 165.056 1281.24 165.816C1278.81 166.576 1276.91 168.324 1275.54 171.06C1274.33 173.644 1273.72 178.052 1273.72 184.284V271.608C1273.72 275.712 1273.64 279.664 1273.49 283.464C1273.34 287.264 1273.11 290.152 1272.81 292.128C1275.24 291.824 1278.28 291.672 1281.93 291.672C1285.73 291.52 1288.39 291.444 1289.91 291.444V309H1224.47V293.952C1227.97 293.8 1230.85 293.344 1233.13 292.584C1235.57 291.824 1237.39 290.076 1238.61 287.34C1239.97 284.604 1240.66 280.196 1240.66 274.116V186.792C1240.66 182.688 1240.73 178.736 1240.89 174.936C1241.19 171.136 1241.42 168.248 1241.57 166.272C1239.14 166.424 1236.1 166.576 1232.45 166.728C1228.8 166.728 1226.14 166.804 1224.47 166.956V149.4H1289.91V164.448ZM1312.64 293.952C1316.14 293.8 1319.03 293.344 1321.31 292.584C1323.74 291.824 1325.56 290.076 1326.78 287.34C1328.15 284.604 1328.83 280.196 1328.83 274.116V186.792C1328.83 182.688 1328.91 178.736 1329.06 174.936C1329.36 171.136 1329.59 168.248 1329.74 166.272C1327.31 166.424 1324.27 166.576 1320.62 166.728C1316.97 166.728 1314.31 166.804 1312.64 166.956V149.4L1378.99 149.172C1394.04 149.172 1407.03 151.452 1417.98 156.012C1429.07 160.42 1438.12 166.424 1445.11 174.024C1452.25 181.624 1457.57 190.136 1461.07 199.56C1464.57 208.832 1466.31 218.18 1466.31 227.604C1466.31 236.876 1464.64 246.3 1461.3 255.876C1458.11 265.452 1453.01 274.268 1446.02 282.324C1439.03 290.228 1429.91 296.688 1418.66 301.704C1407.41 306.568 1393.81 309 1377.85 309H1312.64V293.952ZM1361.89 271.608C1361.89 275.712 1361.81 279.664 1361.66 283.464C1361.51 287.264 1361.28 290.152 1360.98 292.128C1362.5 291.976 1364.55 291.976 1367.13 292.128C1369.87 292.128 1372.68 292.204 1375.57 292.356C1378.46 292.356 1380.81 292.356 1382.64 292.356C1391 292.356 1398.14 290.684 1404.07 287.34C1410.15 283.996 1415.09 279.512 1418.89 273.888C1422.84 268.112 1425.73 261.652 1427.55 254.508C1429.38 247.364 1430.29 239.992 1430.29 232.392C1430.29 216.888 1428.16 204.196 1423.91 194.316C1419.65 184.436 1413.65 177.064 1405.89 172.2C1398.29 167.336 1389.17 164.752 1378.53 164.448C1374.89 164.296 1371.77 164.676 1369.19 165.588C1366.75 166.348 1364.93 168.096 1363.71 170.832C1362.5 173.568 1361.89 177.9 1361.89 183.828V271.608ZM1560.05 254.052C1560.05 247.668 1559.06 243.032 1557.08 240.144C1555.11 237.256 1552.37 235.508 1548.88 234.9C1545.53 234.14 1541.81 233.836 1537.7 233.988L1531.78 234.216V271.608C1531.78 275.712 1531.7 279.588 1531.55 283.236C1531.4 286.884 1531.17 289.696 1530.86 291.672H1561.42C1565.98 291.672 1570.38 290.684 1574.64 288.708C1578.9 286.58 1582.39 283.16 1585.13 278.448C1587.86 273.584 1589.23 267.048 1589.23 258.84H1604.05L1602.91 309H1482.53V293.952C1486.02 293.8 1488.91 293.344 1491.19 292.584C1493.62 291.824 1495.45 290.076 1496.66 287.34C1498.03 284.604 1498.72 280.196 1498.72 274.116V186.792C1498.72 182.688 1498.79 178.736 1498.94 174.936C1499.25 171.136 1499.48 168.248 1499.63 166.272C1497.2 166.424 1494.16 166.576 1490.51 166.728C1486.86 166.728 1484.2 166.804 1482.53 166.956V149.4H1596.53L1597.9 193.632H1582.85C1582.85 185.272 1581.4 178.964 1578.52 174.708C1575.63 170.452 1572.06 167.64 1567.8 166.272C1563.54 164.752 1559.36 164.068 1555.26 164.22L1547.05 164.448C1543.86 164.448 1541.12 164.904 1538.84 165.816C1536.56 166.576 1534.82 168.4 1533.6 171.288C1532.38 174.024 1531.78 178.356 1531.78 184.284V218.484H1558.45L1557.54 198.648H1575.1V254.052H1560.05ZM1040.58 611.28C1035.41 598.664 1030.24 586.124 1025.07 573.66C1020.06 561.196 1014.96 548.732 1009.8 536.268C1008.58 533.38 1006.98 529.352 1005.01 524.184C1003.18 518.864 1001.21 512.784 999.081 505.944C997.105 499.104 995.281 492.036 993.609 484.74C993.913 493.252 994.141 501.308 994.293 508.908C994.445 516.356 994.445 523.5 994.293 530.34C994.293 533.684 994.293 537.104 994.293 540.6C994.293 544.096 994.217 547.592 994.065 551.088C994.065 554.432 994.065 557.852 994.065 561.348C994.065 564.692 994.065 568.112 994.065 571.608C994.065 575.712 993.913 579.664 993.609 583.464C993.457 587.264 993.229 590.152 992.925 592.128C995.509 591.824 998.625 591.672 1002.27 591.672C1006.07 591.52 1008.73 591.444 1010.25 591.444V609H958.269V593.952C961.765 593.8 964.653 593.344 966.933 592.584C969.365 591.824 971.189 590.076 972.405 587.34C973.773 584.604 974.457 580.196 974.457 574.116L975.825 486.792C975.977 482.688 976.129 478.736 976.281 474.936C976.433 471.136 976.585 468.248 976.737 466.272C974.305 466.424 971.265 466.576 967.617 466.728C963.969 466.728 961.309 466.804 959.637 466.956V449.4H1010.02L1044.45 537.636C1045.82 541.132 1047.34 545.236 1049.01 549.948C1050.68 554.508 1052.28 558.992 1053.8 563.4C1055.32 567.656 1056.46 571.076 1057.22 573.66H1057.45C1059.42 568.34 1061.25 563.172 1062.92 558.156C1064.59 553.14 1066.34 548.276 1068.16 543.564C1074.09 527.756 1079.94 512.024 1085.72 496.368C1091.65 480.712 1097.58 465.056 1103.5 449.4H1156.17V464.448C1152.83 464.6 1149.86 465.056 1147.28 465.816C1144.7 466.576 1142.72 468.324 1141.35 471.06C1140.14 473.644 1139.6 478.052 1139.76 484.284L1143.18 571.608C1143.48 575.712 1143.48 579.664 1143.18 583.464C1142.87 587.264 1142.57 590.152 1142.26 592.128C1144.85 591.824 1147.96 591.672 1151.61 591.672C1155.41 591.52 1158.07 591.444 1159.59 591.444V609H1096.21V593.952C1099.7 593.8 1102.67 593.344 1105.1 592.584C1107.68 591.824 1109.58 590.076 1110.8 587.34C1112.17 584.604 1112.7 580.196 1112.4 574.116L1110.57 525.78C1110.57 523.956 1110.42 520.84 1110.12 516.432C1109.81 511.872 1109.51 506.932 1109.2 501.612C1109.05 496.14 1108.9 491.048 1108.75 486.336C1108.29 487.4 1107.84 488.464 1107.38 489.528C1106.92 490.44 1106.54 491.428 1106.24 492.492L1061.78 611.28H1040.58ZM1245.93 464.448C1242.59 464.6 1239.7 465.056 1237.27 465.816C1234.84 466.576 1232.94 468.324 1231.57 471.06C1230.35 473.644 1229.74 478.052 1229.74 484.284V571.608C1229.74 575.712 1229.67 579.664 1229.52 583.464C1229.36 587.264 1229.14 590.152 1228.83 592.128C1231.26 591.824 1234.3 591.672 1237.95 591.672C1241.75 591.52 1244.41 591.444 1245.93 591.444V609H1180.5V593.952C1183.99 593.8 1186.88 593.344 1189.16 592.584C1191.59 591.824 1193.42 590.076 1194.63 587.34C1196 584.604 1196.68 580.196 1196.68 574.116V486.792C1196.68 482.688 1196.76 478.736 1196.91 474.936C1197.22 471.136 1197.44 468.248 1197.6 466.272C1195.16 466.424 1192.12 466.576 1188.48 466.728C1184.83 466.728 1182.17 466.804 1180.5 466.956V449.4H1245.93V464.448ZM1389.96 611.28L1317 518.028C1315.03 515.444 1312.98 512.708 1310.85 509.82C1308.72 506.932 1306.59 503.968 1304.46 500.928H1304.24L1304.69 571.608C1304.69 575.712 1304.62 579.664 1304.46 583.464C1304.31 587.264 1304.08 590.152 1303.78 592.128C1306.21 591.824 1309.25 591.672 1312.9 591.672C1316.7 591.52 1319.36 591.444 1320.88 591.444V609H1268.9V593.952C1272.39 593.8 1275.28 593.344 1277.56 592.584C1279.99 591.824 1281.82 590.076 1283.03 587.34C1284.4 584.604 1285.08 580.196 1285.08 574.116L1284.63 486.792C1284.63 482.688 1284.7 478.736 1284.86 474.936C1285.01 471.136 1285.24 468.248 1285.54 466.272C1283.11 466.424 1279.99 466.576 1276.19 466.728C1272.54 466.728 1269.88 466.804 1268.21 466.956V449.4H1304.01L1373.78 537.408C1377.58 542.272 1380.69 546.452 1383.12 549.948C1385.71 553.444 1387.91 556.484 1389.74 559.068H1389.96V486.792C1389.96 482.688 1390.04 478.736 1390.19 474.936C1390.34 471.136 1390.5 468.248 1390.65 466.272C1388.22 466.424 1385.18 466.576 1381.53 466.728C1377.88 466.728 1375.22 466.804 1373.55 466.956V449.4H1425.53V464.448C1422.19 464.6 1419.3 465.056 1416.87 465.816C1414.44 466.576 1412.54 468.324 1411.17 471.06C1409.95 473.644 1409.34 478.052 1409.34 484.284V611.28H1389.96ZM1445.01 593.952C1448.51 593.8 1451.4 593.344 1453.68 592.584C1456.11 591.824 1457.93 590.076 1459.15 587.34C1460.52 584.604 1461.2 580.196 1461.2 574.116V486.792C1461.2 482.688 1461.28 478.736 1461.43 474.936C1461.73 471.136 1461.96 468.248 1462.11 466.272C1459.68 466.424 1456.64 466.576 1452.99 466.728C1449.34 466.728 1446.68 466.804 1445.01 466.956V449.4L1511.36 449.172C1526.41 449.172 1539.4 451.452 1550.35 456.012C1561.44 460.42 1570.49 466.424 1577.48 474.024C1584.62 481.624 1589.94 490.136 1593.44 499.56C1596.94 508.832 1598.68 518.18 1598.68 527.604C1598.68 536.876 1597.01 546.3 1593.67 555.876C1590.48 565.452 1585.38 574.268 1578.39 582.324C1571.4 590.228 1562.28 596.688 1551.03 601.704C1539.78 606.568 1526.18 609 1510.22 609H1445.01V593.952ZM1494.26 571.608C1494.26 575.712 1494.18 579.664 1494.03 583.464C1493.88 587.264 1493.65 590.152 1493.35 592.128C1494.87 591.976 1496.92 591.976 1499.5 592.128C1502.24 592.128 1505.05 592.204 1507.94 592.356C1510.83 592.356 1513.18 592.356 1515.01 592.356C1523.37 592.356 1530.51 590.684 1536.44 587.34C1542.52 583.996 1547.46 579.512 1551.26 573.888C1555.21 568.112 1558.1 561.652 1559.92 554.508C1561.75 547.364 1562.66 539.992 1562.66 532.392C1562.66 516.888 1560.53 504.196 1556.28 494.316C1552.02 484.436 1546.02 477.064 1538.26 472.2C1530.66 467.336 1521.54 464.752 1510.9 464.448C1507.26 464.296 1504.14 464.676 1501.56 465.588C1499.12 466.348 1497.3 468.096 1496.08 470.832C1494.87 473.568 1494.26 477.9 1494.26 483.828V571.608ZM1710.13 500.472C1708.76 491.96 1706.33 484.892 1702.83 479.268C1699.34 473.492 1694.85 469.16 1689.38 466.272C1684.06 463.384 1677.83 462.016 1670.68 462.168C1664.15 462.168 1658.37 463.992 1653.36 467.64C1648.49 471.288 1646.06 476 1646.06 481.776C1646.06 486.488 1647.35 490.592 1649.94 494.088C1652.67 497.584 1656.78 500.852 1662.25 503.892C1667.72 506.932 1674.64 510.2 1683 513.696C1688.77 515.976 1694.7 518.636 1700.78 521.676C1706.86 524.716 1712.48 528.364 1717.65 532.62C1722.82 536.724 1727 541.588 1730.19 547.212C1733.38 552.684 1734.98 559.144 1734.98 566.592C1734.98 575.56 1732.55 583.54 1727.68 590.532C1722.82 597.524 1715.98 602.996 1707.16 606.948C1698.5 610.748 1688.32 612.648 1676.61 612.648C1670.53 612.648 1663.92 611.66 1656.78 609.684C1649.78 607.86 1643.17 605.124 1636.94 601.476L1637.62 611.052H1620.07V557.7H1635.12C1637.24 570.468 1642.11 580.12 1649.71 586.656C1657.46 593.04 1666.66 596.232 1677.3 596.232C1682.77 596.232 1687.56 595.244 1691.66 593.268C1695.76 591.292 1698.96 588.708 1701.24 585.516C1703.52 582.172 1704.66 578.6 1704.66 574.8C1704.66 569.48 1702.76 565.072 1698.96 561.576C1695.31 558.08 1690.67 555.116 1685.05 552.684C1679.58 550.252 1673.95 547.896 1668.18 545.616C1660.88 542.576 1654.04 539.384 1647.66 536.04C1641.42 532.544 1635.95 528.592 1631.24 524.184C1626.53 519.776 1622.88 514.76 1620.3 509.136C1617.71 503.36 1616.42 496.748 1616.42 489.3C1616.42 484.588 1617.33 479.724 1619.16 474.708C1620.98 469.54 1623.94 464.828 1628.05 460.572C1632.15 456.164 1637.62 452.592 1644.46 449.856C1651.3 447.12 1659.74 445.752 1669.77 445.752C1675.85 445.752 1682.46 446.664 1689.61 448.488C1696.9 450.312 1703.14 453.048 1708.3 456.696L1707.39 447.348H1725.18V500.472H1710.13ZM1831.8 554.052C1831.8 547.668 1830.81 543.032 1828.84 540.144C1826.86 537.256 1824.12 535.508 1820.63 534.9C1817.28 534.14 1813.56 533.836 1809.46 533.988L1803.53 534.216V571.608C1803.53 575.712 1803.45 579.588 1803.3 583.236C1803.15 586.884 1802.92 589.696 1802.62 591.672H1833.17C1837.73 591.672 1842.14 590.684 1846.39 588.708C1850.65 586.58 1854.14 583.16 1856.88 578.448C1859.62 573.584 1860.98 567.048 1860.98 558.84H1875.8L1874.66 609H1754.28V593.952C1757.78 593.8 1760.66 593.344 1762.94 592.584C1765.38 591.824 1767.2 590.076 1768.42 587.34C1769.78 584.604 1770.47 580.196 1770.47 574.116V486.792C1770.47 482.688 1770.54 478.736 1770.7 474.936C1771 471.136 1771.23 468.248 1771.38 466.272C1768.95 466.424 1765.91 466.576 1762.26 466.728C1758.61 466.728 1755.95 466.804 1754.28 466.956V449.4H1868.28L1869.65 493.632H1854.6C1854.6 485.272 1853.16 478.964 1850.27 474.708C1847.38 470.452 1843.81 467.64 1839.55 466.272C1835.3 464.752 1831.12 464.068 1827.01 464.22L1818.8 464.448C1815.61 464.448 1812.88 464.904 1810.6 465.816C1808.32 466.576 1806.57 468.4 1805.35 471.288C1804.14 474.024 1803.53 478.356 1803.53 484.284V518.484H1830.2L1829.29 498.648H1846.85V554.052H1831.8ZM2014.43 500.928C2014.43 492.72 2013.29 485.956 2011.01 480.636C2008.73 475.164 2005.47 471.136 2001.21 468.552C1997.11 465.816 1992.17 464.524 1986.39 464.676H1975.45V571.608C1975.45 575.712 1975.37 579.664 1975.22 583.464C1975.07 587.264 1974.84 590.152 1974.53 592.128C1977.12 591.824 1980.39 591.672 1984.34 591.672C1988.44 591.52 1991.25 591.444 1992.77 591.444V609H1926.2V593.952C1929.69 593.8 1932.58 593.344 1934.86 592.584C1937.29 591.824 1939.12 590.076 1940.33 587.34C1941.7 584.604 1942.39 580.196 1942.39 574.116V464.904H1931.9C1923.23 465.056 1916.39 468.02 1911.38 473.796C1906.36 479.572 1903.85 488.616 1903.85 500.928H1888.81L1889.95 449.4H2028.11L2029.48 500.928H2014.43Z" fill="#0F172A"/>
<path d="M1760.62 312.648C1746.18 312.648 1733.87 310.216 1723.69 305.352C1713.66 300.488 1705.52 294.028 1699.29 285.972C1693.06 277.764 1688.5 268.72 1685.61 258.84C1682.72 248.96 1681.28 239.08 1681.28 229.2C1681.28 219.624 1682.88 209.972 1686.07 200.244C1689.41 190.364 1694.35 181.32 1700.89 173.112C1707.58 164.904 1715.94 158.292 1725.97 153.276C1736 148.26 1747.78 145.752 1761.31 145.752C1775.14 145.752 1787.07 148.26 1797.1 153.276C1807.14 158.292 1815.34 164.98 1821.73 173.34C1828.11 181.548 1832.82 190.516 1835.86 200.244C1839.06 209.972 1840.65 219.624 1840.65 229.2C1840.65 238.624 1838.98 248.2 1835.64 257.928C1832.44 267.656 1827.5 276.7 1820.82 285.06C1814.28 293.268 1806 299.956 1795.96 305.124C1785.93 310.14 1774.15 312.648 1760.62 312.648ZM1763.13 296.004C1771.04 296.004 1777.65 294.104 1782.97 290.304C1788.29 286.352 1792.54 281.26 1795.74 275.028C1798.93 268.796 1801.21 262.032 1802.58 254.736C1803.94 247.288 1804.63 240.068 1804.63 233.076C1804.63 222.588 1803.72 213.012 1801.89 204.348C1800.07 195.684 1797.26 188.236 1793.46 182.004C1789.66 175.62 1784.79 170.756 1778.86 167.412C1773.09 163.916 1766.25 162.244 1758.34 162.396C1750.59 162.548 1744.06 164.676 1738.74 168.78C1733.42 172.732 1729.16 177.9 1725.97 184.284C1722.78 190.516 1720.5 197.356 1719.13 204.804C1717.76 212.252 1717.08 219.472 1717.08 226.464C1717.08 233.608 1717.84 241.208 1719.36 249.264C1721.03 257.32 1723.61 264.92 1727.11 272.064C1730.6 279.208 1735.32 284.984 1741.24 289.392C1747.17 293.8 1754.47 296.004 1763.13 296.004ZM1918.56 164.448C1915.22 164.6 1912.33 165.056 1909.9 165.816C1907.46 166.576 1905.56 168.324 1904.2 171.06C1902.98 173.644 1902.37 178.052 1902.37 184.284V246.984C1902.37 256.56 1903.36 264.464 1905.34 270.696C1907.46 276.776 1910.2 281.64 1913.54 285.288C1917.04 288.784 1920.92 291.292 1925.17 292.812C1929.58 294.332 1934.06 295.168 1938.62 295.32C1946.98 295.624 1954.13 294.028 1960.06 290.532C1965.98 287.036 1970.54 281.64 1973.74 274.344C1976.93 267.048 1978.52 257.776 1978.52 246.528V186.792C1978.52 182.688 1978.6 178.736 1978.75 174.936C1978.9 171.136 1979.13 168.248 1979.44 166.272C1977 166.424 1973.89 166.576 1970.09 166.728C1966.44 166.728 1963.78 166.804 1962.11 166.956V149.4H2015V164.448C2011.66 164.6 2008.77 165.056 2006.34 165.816C2003.91 166.576 2002.01 168.324 2000.64 171.06C1999.42 173.644 1998.82 178.052 1998.82 184.284V241.284C1998.82 254.356 1997.22 265.452 1994.03 274.572C1990.84 283.692 1986.35 291.064 1980.58 296.688C1974.8 302.312 1968.04 306.416 1960.28 309C1952.53 311.432 1944.1 312.648 1934.98 312.648C1922.21 312.648 1911.57 310.824 1903.06 307.176C1894.54 303.528 1887.78 298.436 1882.76 291.9C1877.9 285.364 1874.4 277.84 1872.28 269.328C1870.3 260.816 1869.31 251.696 1869.31 241.968V186.792C1869.31 182.688 1869.39 178.736 1869.54 174.936C1869.84 171.136 1870.07 168.248 1870.22 166.272C1867.79 166.424 1864.75 166.576 1861.1 166.728C1857.46 166.728 1854.8 166.804 1853.12 166.956V149.4H1918.56V164.448ZM2149.7 200.928C2149.7 192.72 2148.56 185.956 2146.28 180.636C2144 175.164 2140.73 171.136 2136.47 168.552C2132.37 165.816 2127.43 164.524 2121.65 164.676H2110.71V271.608C2110.71 275.712 2110.63 279.664 2110.48 283.464C2110.33 287.264 2110.1 290.152 2109.8 292.128C2112.38 291.824 2115.65 291.672 2119.6 291.672C2123.71 291.52 2126.52 291.444 2128.04 291.444V309H2061.46V293.952C2064.96 293.8 2067.85 293.344 2070.13 292.584C2072.56 291.824 2074.38 290.076 2075.6 287.34C2076.97 284.604 2077.65 280.196 2077.65 274.116V164.904H2067.16C2058.5 165.056 2051.66 168.02 2046.64 173.796C2041.63 179.572 2039.12 188.616 2039.12 200.928H2024.07L2025.21 149.4H2163.38L2164.75 200.928H2149.7Z" fill="#D97706"/>
<path d="M613.952 216.437L617.986 245.492C621.793 272.91 632.894 297.039 649.241 319.142C656.695 329.223 664.288 338.502 670.812 349.038C675.834 357.149 673.825 366.363 666.246 371.95C659.99 376.561 652.576 378.302 644.983 379.863C629.228 383.099 640.448 403.6 645.186 414.017C650.007 424.617 638.715 428.342 631.464 433.583C635.744 438.125 639.197 441.491 640.802 446.715C642.022 450.685 639.699 455.157 636.561 457.695C624.196 467.703 635.765 479.512 635.712 503.699C635.648 531.91 599.442 531.403 578.154 530.168L512.566 526.365C510.396 536.829 508.712 546.517 504.103 555.857C492.169 580.043 488.353 605.551 488.505 632.664L407.177 632.625L406.885 421.98L416.643 346.267C418.633 344.028 426.472 343.924 427.704 346.323L440.805 421.106C441.305 423.961 445.355 423.752 447.07 423.472C449.174 423.129 449.699 419.885 449.367 417.064L440.532 341.871C444.601 338.8 448.996 337.617 454.074 335.673L492.276 409.403C493.295 411.366 498.252 410.815 499.259 409.653C500.064 408.721 501.414 406.683 500.407 404.491L465.928 329.52C466.334 325.31 473.122 321.462 476.548 320.435L514.009 356.554C521.565 363.838 529.206 370.368 536.183 378.265C538.191 380.536 541.263 380.623 543.081 379.665C544.394 378.973 546.072 374.817 544.389 373.049L484.88 310.576C484.868 305.866 489.14 300.808 492.556 298.294L569.412 333.621C571.993 334.807 575.819 333.266 576.375 331.266C576.888 329.426 576.068 326.494 573.519 325.228L531.553 304.37C525.42 301.323 501.694 289.118 498.597 286.017C496.539 283.956 499.012 274.848 501.95 274.779L594.029 278.629C596.807 278.745 598.665 275.338 598.378 273.744C597.252 267.526 586.059 270.043 571.996 268.466L503.129 260.746C499.549 260.346 498.89 249.934 502.123 248.994L613.952 216.437Z" fill="#141C2E"/>
<path d="M494.954 222.26L562.213 171.044C564.232 169.507 562.993 165.181 561.518 164.343C560.084 163.529 557.654 163.98 555.357 165.546L486.548 212.477C485.781 215.697 491.828 224.641 494.954 222.26ZM475.012 196.155L515.63 125.306C517.07 122.795 515.034 120.075 513.594 119.23C511.601 118.057 508.754 118.842 507.217 121.285L464.897 188.532C466.857 192.996 470.338 195.778 475.012 196.155ZM445.213 178.831L462.211 95.2516C462.833 92.1967 460.182 89.0544 458.19 89.166C456.718 89.2472 453.908 90.3409 453.302 92.7812L432.489 176.634C436.273 178.546 440.349 179.452 445.213 178.831ZM613.953 216.437L502.124 248.994C498.889 249.936 499.55 260.345 503.129 260.746L571.995 268.466C586.06 270.042 597.253 267.526 598.377 273.744C598.666 275.338 596.807 278.745 594.028 278.629L501.949 274.778C499.011 274.847 496.538 283.956 498.597 286.017C501.694 289.118 525.421 301.324 531.554 304.372L573.52 325.228C576.068 326.494 576.888 329.427 576.375 331.266C575.818 333.265 571.993 334.807 569.412 333.621L492.555 298.294C489.141 300.807 484.869 305.865 484.879 310.576L544.39 373.051C546.073 374.817 544.395 378.973 543.081 379.665C541.264 380.623 538.192 380.536 536.184 378.264C529.205 370.369 521.566 363.838 514.01 356.554L476.548 320.435C473.121 321.462 466.334 325.31 465.927 329.52L500.407 404.491C501.415 406.682 500.063 408.721 499.258 409.653C498.252 410.815 493.296 411.366 492.277 409.403L454.075 335.673C448.996 337.617 444.602 338.8 440.533 341.871L449.368 417.064C449.698 419.885 449.173 423.13 447.07 423.472C445.356 423.751 441.306 423.961 440.806 421.106L427.704 346.323C426.473 343.924 418.634 344.028 416.642 346.267L406.886 421.98L405.404 336.581C412.024 330.018 418.683 325.776 424.203 319.358C450.233 289.094 455.902 248.294 437.13 213.29C429.238 198.574 419.809 185.78 405.305 177.277L404.746 147.487L404.545 50.8858C481.286 52.0352 559.939 95.351 594.835 162.598C603.978 180.217 611.323 197.497 613.953 216.437Z" fill="#DA8008"/>
<path d="M209.416 633.737C216.329 613.724 224.11 595.105 228.26 574.47C233.386 552.074 236.102 530.337 234.92 507.436C232.629 469.539 222.839 434.263 205.999 400.414L172.201 332.476C161.074 310.106 156.102 286.883 153.274 261.929C149.033 194.834 181.077 132.431 236.998 94.9407C281.653 64.3822 334.507 49.8334 389.701 50.2866L390.641 252.032L195.14 252.789C190.015 253.056 187.317 255.55 187.076 259.58C186.85 263.38 188.76 267.251 193.938 267.232L390.631 266.469L392.428 632.966L209.416 633.737Z" fill="#141C2E"/>
<path fill-rule="evenodd" clip-rule="evenodd" d="M223.027 238.242L237.015 238.183L236.665 160.757C236.648 156.917 233.487 153.788 229.64 153.805C225.793 153.821 222.66 156.976 222.678 160.817L223.027 238.242ZM334.504 281.152L348.492 281.092L349.191 435.869C349.208 439.709 346.075 442.864 342.228 442.881C338.381 442.897 335.22 439.767 335.203 435.928L334.504 281.152ZM278.81 281.348L292.797 281.289L293.333 400.002C293.351 403.843 290.218 406.998 286.371 407.014C282.524 407.031 279.363 403.902 279.346 400.062L278.81 281.348ZM223.223 281.624L237.211 281.565L237.561 358.99C237.578 362.831 234.445 365.986 230.598 366.002C226.751 366.019 223.59 362.89 223.573 359.05L223.223 281.624ZM334.308 237.77L348.296 237.71L347.597 82.934C347.58 79.0934 344.419 75.9652 340.572 75.9815C336.725 75.9978 333.592 79.1541 333.609 82.9934L334.308 237.77ZM278.614 238.046L292.602 237.987L292.066 119.273C292.048 115.433 288.887 112.304 285.04 112.321C281.193 112.337 278.061 115.493 278.078 119.333L278.614 238.046Z" fill="#FEFEFE"/>
</svg>
